#!OML:ASF F:\VICON\USERDATA\INSTALL\rory3\rory3.ASF
:FULLY-SPECIFIED
:DEGREES
954
root 3.72851 28.8691 -1.24162 -167.135 -30.3967 -180.503
lowerback 12.0633 -4.11696 -3.08293
upperback 2.29618 -6.0419 -0.481235
thorax -4.06302 -3.02388 2.14043
lowerneck -6.28576 7.38042 -12.0124
upperneck 40.5329 7.11687 2.625
head 14.4641 -0.0548293 3.68645
rclavicle 5.1684e-015 1.66979e-014
rhumerus -7.15309 2.0417 -79.6032
rradius 102.117
rwrist 1.95876
rhand -32.5479 -14.4735
rfingers 7.12502
rthumb -5.77773 -44.3748
lclavicle 5.1684e-015 1.66979e-014
lhumerus 25.297 -15.9968 67.3729
lradius 72.7444
lwrist 25.955
lhand -17.6089 32.6136
lfingers 7.12502
lthumb 8.64773 62.4164
rfemur -20.8315 -0.609571 23.9037
rtibia 14.2374
rfoot -4.28179 -7.98463
rtoes 13.5128
lfemur -79.577 11.548 -26.1169
ltibia 104.602
lfoot -18.4288 -3.44198
ltoes -8.14748
955
root 3.73064 28.8661 -1.22361 -167.067 -30.1637 -180.743
lowerback 11.889 -3.68367 -4.13465
upperback 2.43425 -5.55681 0.295689
thorax -3.66936 -2.7862 3.43591
lowerneck -6.40921 6.97766 -12.304
upperneck 40.3745 6.91123 1.88324
head 14.493 -0.257957 3.41156
rclavicle -9.54166e-015 2.22639e-014
rhumerus -6.33404 1.98326 -78.1703
rradius 101.685
rwrist 2.0883
rhand -32.5975 -14.4348
rfingers 7.12502
rthumb -5.82558 -44.3347
lclavicle -9.54166e-015 2.22639e-014
lhumerus 24.4452 -15.4104 69.5787
lradius 72.5833
lwrist 26.3815
lhand -17.5124 31.9103
lfingers 7.12502
lthumb 8.74086 61.7093
rfemur -20.9791 -0.307931 23.592
rtibia 14.7081
rfoot -4.49997 -8.15102
rtoes 14.345
lfemur -78.7721 11.5308 -25.7227
ltibia 104.815
lfoot -18.086 -2.71143
ltoes -7.06738
956
root 3.73247 28.8791 -1.20508 -167.033 -29.8815 -181.001
lowerback 11.9547 -3.57974 -4.14754
upperback 2.40413 -5.42849 0.214737
thorax -3.75484 -2.71973 3.34919
lowerneck -6.58322 6.90267 -11.9747
upperneck 40.4626 6.84479 1.69016
head 14.609 -0.270738 3.27796
rclavicle -5.1684e-015 -4.6118e-014
rhumerus -6.11082 1.96499 -78.2962
rradius 101.376
rwrist 2.41848
rhand -32.6056 -14.3371
rfingers 7.12502
rthumb -5.83349 -44.2368
lclavicle -5.1684e-015 -4.6118e-014
lhumerus 23.1795 -15.0682 70.3198
lradius 72.4698
lwrist 26.754
lhand -17.8979 31.8832
lfingers 7.12502
lthumb 8.36886 61.6974
rfemur -21.1071 -0.528853 23.3832
rtibia 15.1196
rfoot -4.48367 -8.07578
rtoes 17.6001
lfemur -77.7373 11.57 -25.3577
ltibia 104.816
lfoot -17.5458 -2.51852
ltoes -5.23277
957
root 3.73139 28.8839 -1.18688 -167.053 -29.6446 -181.174
lowerback 11.9749 -3.49194 -4.11916
upperback 2.419 -5.31235 0.195734
thorax -3.76455 -2.66348 3.29919
lowerneck -6.71718 6.81315 -11.7794
upperneck 40.4556 6.76217 1.58194
head 14.6591 -0.285837 3.19738
rclavicle 7.87187e-014 -2.78299e-014
rhumerus -5.84419 1.96095 -78.4424
rradius 101.16
rwrist 2.86438
rhand -32.5674 -14.3494
rfingers 7.12502
rthumb -5.79655 -44.2501
lclavicle 7.87187e-014 -2.78299e-014
lhumerus 21.9264 -14.634 71.144
lradius 72.3535
lwrist 26.9187
lhand -17.9554 32.1401
lfingers 7.12502
lthumb 8.31335 61.9565
rfemur -21.3618 -0.71593 23.1918
rtibia 15.5536
rfoot -4.13154 -7.41326
rtoes 13.6734
lfemur -76.6853 11.5586 -24.9355
ltibia 104.732
lfoot -16.6094 -2.2471
ltoes -3.15376
958
root 3.73236 28.8838 -1.16922 -167.103 -29.4579 -181.25
lowerback 11.9375 -3.41732 -4.14485
upperback 2.4848 -5.21365 0.286461
thorax -3.67221 -2.61998 3.38828
lowerneck -6.83062 6.69724 -11.851
upperneck 40.3074 6.66674 1.62317
head 14.6154 -0.30642 3.22052
rclavicle 3.77691e-015 2.0276e-014
rhumerus -5.37718 2.05982 -78.523
rradius 100.895
rwrist 3.2227
rhand -32.6094 -14.3446
rfingers 7.12502
rthumb -5.83707 -44.2442
lclavicle 3.77691e-015 2.0276e-014
lhumerus 20.5972 -14.0101 72.0141
lradius 72.4551
lwrist 27.0467
lhand -17.5469 32.1358
lfingers 7.12502
lthumb 8.70762 61.9362
rfemur -21.5776 -0.382905 22.9705
rtibia 15.8984
rfoot -4.19841 -7.47182
rtoes 13.2785
lfemur -75.6282 11.5033 -24.3816
ltibia 104.585
lfoot -15.4766 -1.63723
ltoes -2.77161
959
root 3.73164 28.8803 -1.1532 -167.117 -29.262 -181.359
lowerback 11.9197 -3.37372 -4.07684
upperback 2.49892 -5.14797 0.280793
thorax -3.6598 -2.58927 3.33385
lowerneck -7.08607 6.63123 -11.6728
upperneck 40.4608 6.57579 1.63533
head 14.7624 -0.331743 3.19751
rclavicle 9.68081e-014 -4.37326e-014
rhumerus -4.97669 2.16305 -78.5968
rradius 100.576
rwrist 3.46755
rhand -32.576 -14.3042
rfingers 7.12502
rthumb -5.80483 -44.2047
lclavicle 9.68081e-014 -4.37326e-014
lhumerus 19.2712 -13.4735 72.6387
lradius 72.373
lwrist 27.0548
lhand -17.0156 31.7258
lfingers 7.12502
lthumb 9.22032 61.5042
rfemur -21.8212 -0.54811 22.8649
rtibia 16.332
rfoot -4.16554 -7.17591
rtoes 13.5084
lfemur -74.5269 11.3831 -23.8035
ltibia 104.345
lfoot -14.4384 -1.18101
ltoes -6.37735
960
root 3.72814 28.873 -1.13678 -167.157 -29.0376 -181.417
lowerback 11.8939 -3.30186 -3.97709
upperback 2.51697 -5.03862 0.31571
thorax -3.6412 -2.53737 3.29734
lowerneck -7.35335 6.54741 -11.2987
upperneck 40.6969 6.49663 1.35207
head 14.9842 -0.375396 3.01854
rclavicle 4.47266e-014 -3.73715e-014
rhumerus -4.60055 2.22179 -78.5902
rradius 100.332
rwrist 3.6617
rhand -32.5831 -14.2965
rfingers 7.12502
rthumb -5.8117 -44.1968
lclavicle 4.47266e-014 -3.73715e-014
lhumerus 18.1654 -13.0374 73.2661
lradius 71.7362
lwrist 26.7453
lhand -17.3127 30.6705
lfingers 7.12502
lthumb 8.93356 60.4614
rfemur -22.1249 -0.646159 22.7964
rtibia 16.9097
rfoot -4.17491 -6.8513
rtoes 13.4903
lfemur -73.3712 11.2659 -23.1986
ltibia 103.977
lfoot -12.9729 -1.24831
ltoes -5.41753
961
root 3.72291 28.8647 -1.11616 -167.136 -28.7641 -181.56
lowerback 11.8691 -3.20857 -3.92771
upperback 2.52878 -4.90823 0.330565
thorax -3.62875 -2.47434 3.26555
lowerneck -7.42288 6.42656 -11.0489
upperneck 40.688 6.38585 1.06265
head 15.0366 -0.422227 2.8436
rclavicle -5.96354e-016 -8.74653e-015
rhumerus -4.2276 2.26852 -78.6145
rradius 100.085
rwrist 3.97397
rhand -32.6701 -14.3052
rfingers 7.12502
rthumb -5.89568 -44.2032
lclavicle -5.96354e-016 -8.74653e-015
lhumerus 17.2002 -12.6259 73.9131
lradius 71.0503
lwrist 26.2427
lhand -18.4224 30.1124
lfingers 7.12502
lthumb 7.86269 59.9462
rfemur -22.5668 -0.662118 22.609
rtibia 17.7234
rfoot -4.26132 -6.51467
rtoes 13.3846
lfemur -72.1622 11.1245 -22.7272
ltibia 103.432
lfoot -11.42 -1.45021
ltoes -4.07568
962
root 3.71709 28.8575 -1.09384 -167.087 -28.4891 -181.75
lowerback 11.9034 -3.17349 -3.75511
upperback 2.50247 -4.84778 0.207102
thorax -3.70548 -2.44343 3.03702
lowerneck -7.37344 6.33165 -10.735
upperneck 40.5328 6.26262 0.882565
head 14.9801 -0.432066 2.69748
rclavicle 4.90998e-014 -1.19271e-014
rhumerus -3.85586 2.29282 -78.9024
rradius 99.7629
rwrist 4.29714
rhand -32.5876 -14.2466
rfingers 7.12502
rthumb -5.81606 -44.1467
lclavicle 4.90998e-014 -1.19271e-014
lhumerus 16.0506 -12.2182 74.3006
lradius 70.6245
lwrist 25.7378
lhand -19.0959 30.1672
lfingers 7.12502
lthumb 7.21259 60.0243
rfemur -23.0161 -1.40507 22.5664
rtibia 18.5429
rfoot -4.15316 -5.62075
rtoes 14.0105
lfemur -70.8626 10.8904 -22.3235
ltibia 102.696
lfoot -9.76661 -1.46388
ltoes -3.48767
963
root 3.70988 28.8453 -1.07623 -167.059 -28.1547 -181.917
lowerback 11.7519 -3.0859 -3.79706
upperback 2.5879 -4.7338 0.21346
thorax -3.53761 -2.39482 3.03668
lowerneck -7.48343 6.20182 -10.5545
upperneck 40.4322 6.12758 0.766773
head 14.9801 -0.461073 2.60624
rclavicle 3.47873e-014 6.75868e-015
rhumerus -3.27937 2.35929 -78.9619
rradius 99.4405
rwrist 4.6823
rhand -32.5735 -14.2051
rfingers 7.12502
rthumb -5.80243 -44.1056
lclavicle 3.47873e-014 6.75868e-015
lhumerus 14.9433 -11.7968 74.6864
lradius 70.2883
lwrist 25.1112
lhand -19.5162 30.2614
lfingers 7.12502
lthumb 6.80686 60.132
rfemur -23.3088 -1.76968 22.492
rtibia 19.2494
rfoot -4.20382 -5.17155
rtoes 14.8716
lfemur -69.5046 10.6756 -21.866
ltibia 101.85
lfoot -7.80158 -1.63119
ltoes -2.28924
